Michael Madana Kama Rajan (1990) - Tamil Classic Movie - DVDRip - 1CD - ESUBS - Cena @ Team TMR





General


Complete name                  : Michael Madana Kama Rajan (1990) - Tamil Classic Movie - 1CD - DVDRip - ESUBS - Cena @ Team TMR
Format                         : Flash Video
File size                      : 596 MiB
Duration                       : 2h 47mn
Overall bit rate               : 498 Kbps



Video


Format                         : AVC
Format/Info                    : Advanced Video Codec
Format profile                 : Main@L2.1
Format settings, CABAC         : Yes
Format settings, ReFrames      : 3 frames
Format settings, GOP           : M=1, N=50
Codec ID                       : 7
Duration                       : 2h 47mn
Bit rate                       : 361 Kbps
Width                          : 450 pixels
Height                         : 360 pixels
Display aspect ratio           : 5:4
Frame rate mode                : Constant
Frame rate                     : 25.000 fps
Color space                    : YUV
Chroma subsampling             : 4:2:0
Bit depth                      : 8 bits
Scan type                      : Progressive
Bits/(Pixel*Frame)             : 0.089
Stream size                    : 432 MiB (72%)



Audio


Format                         : AAC
Format/Info                    : Advanced Audio Codec
Format profile                 : LC
Codec ID                       : 10
Duration                       : 2h 47mn
Bit rate                       : 129 Kbps
Channel(s)                     : 2 channels
Channel positions              : Front: L R
Sampling rate                  : 44.1 KHz
Compression mode               : Lossy
Stream size                    : 154 MiB (26%)





[IMG]http://img835.imageshack.us/img835/5678/vlcsnap2013042321h21m06.png[/IMG]
[IMG]http://img547.imageshack.us/img547/7420/vlcsnap2013042321h21m34.png[/IMG]
[IMG]http://img138.imageshack.us/img138/1361/vlcsnap2013042321h22m41.png[/IMG]
[IMG]http://img823.imageshack.us/img823/7290/vlcsnap2013042321h22m59.png[/IMG]
[IMG]http://img442.imageshack.us/img442/6813/vlcsnap2013042321h23m24.png[/IMG]
[IMG]http://img845.imageshack.us/img845/9648/vlcsnap2013042321h23m50.png[/IMG]
[IMG]http://img138.imageshack.us/img138/492/vlcsnap2013042321h24m00.png[/IMG]
[IMG]http://img33.imageshack.us/img33/6259/vlcsnap2013042321h24m20.png[/IMG]
[IMG]http://img132.imageshack.us/img132/6303/michaelmadanakamarajan1.jpg[/IMG]

